<mxfile host="app.diagrams.net" modified="2023-09-14T16:55:10.881Z" agent="Mozilla/5.0 (Windows NT 10.0; Win64; x64) AppleWebKit/537.36 (KHTML, like Gecko) Chrome/116.0.0.0 Safari/537.36" etag="gBuU-wT_6VJTKHaSUkGE" version="21.7.5" type="github">
  <diagram name="第 1 页" id="-HFddUl7ccUKl9zY_WIh">
    <mxGraphModel dx="1195" dy="632" grid="1" gridSize="10" guides="1" tooltips="1" connect="1" arrows="1" fold="1" page="1" pageScale="1" pageWidth="827" pageHeight="583" math="0" shadow="0">
      <root>
        <mxCell id="0" />
        <mxCell id="1" parent="0" />
        <mxCell id="QQmnpwuGZigfUQ-nr-9u-25" value="" style="rounded=0;whiteSpace=wrap;html=1;" vertex="1" parent="1">
          <mxGeometry x="80" y="180" width="600" height="270" as="geometry" />
        </mxCell>
        <mxCell id="QQmnpwuGZigfUQ-nr-9u-1" value="task1: sample_audio" style="rounded=0;whiteSpace=wrap;html=1;" vertex="1" parent="1">
          <mxGeometry x="160" y="280" width="120" height="40" as="geometry" />
        </mxCell>
        <mxCell id="QQmnpwuGZigfUQ-nr-9u-2" value="Start" style="rounded=1;whiteSpace=wrap;html=1;" vertex="1" parent="1">
          <mxGeometry x="340" y="80" width="120" height="40" as="geometry" />
        </mxCell>
        <mxCell id="QQmnpwuGZigfUQ-nr-9u-3" value="task2: online_wakeup" style="rounded=0;whiteSpace=wrap;html=1;" vertex="1" parent="1">
          <mxGeometry x="160" y="360" width="120" height="40" as="geometry" />
        </mxCell>
        <mxCell id="QQmnpwuGZigfUQ-nr-9u-4" value="task3:&lt;br&gt;&lt;div style=&quot;text-align: left;&quot;&gt;&lt;span style=&quot;background-color: initial;&quot;&gt;a. recoding&amp;nbsp;&lt;/span&gt;&lt;span style=&quot;background-color: initial;&quot;&gt;(in 10sec, VAD)&lt;/span&gt;&lt;/div&gt;&lt;div style=&quot;text-align: left;&quot;&gt;&lt;span style=&quot;background-color: initial;&quot;&gt;b.&amp;nbsp;&lt;/span&gt;&lt;span style=&quot;background-color: initial;&quot;&gt;stt/asr-api request&lt;/span&gt;&lt;/div&gt;&lt;div style=&quot;text-align: left;&quot;&gt;c. chatglm request&lt;/div&gt;&lt;div style=&quot;text-align: left;&quot;&gt;&lt;span style=&quot;background-color: initial;&quot;&gt;d. tts-api request&lt;/span&gt;&lt;br&gt;&lt;/div&gt;&lt;div style=&quot;text-align: left;&quot;&gt;e. speech&lt;/div&gt;" style="rounded=0;whiteSpace=wrap;html=1;" vertex="1" parent="1">
          <mxGeometry x="410" y="330" width="160" height="100" as="geometry" />
        </mxCell>
        <mxCell id="QQmnpwuGZigfUQ-nr-9u-6" value="signal" style="text;strokeColor=none;align=center;fillColor=none;html=1;verticalAlign=middle;whiteSpace=wrap;rounded=0;" vertex="1" parent="1">
          <mxGeometry x="310" y="350" width="60" height="30" as="geometry" />
        </mxCell>
        <mxCell id="QQmnpwuGZigfUQ-nr-9u-10" value="&lt;div style=&quot;&quot;&gt;&lt;span style=&quot;background-color: initial;&quot;&gt;ws[s]: //ws-api.xfyun.cn/v2/iat&lt;/span&gt;&lt;/div&gt;&lt;div style=&quot;&quot;&gt;&lt;span style=&quot;background-color: initial;&quot;&gt;wss://iat-api.xfyun.cn/v2/iat&lt;/span&gt;&lt;/div&gt;" style="text;strokeColor=none;align=left;fillColor=none;html=1;verticalAlign=middle;whiteSpace=wrap;rounded=0;" vertex="1" parent="1">
          <mxGeometry x="650" y="530" width="170" height="30" as="geometry" />
        </mxCell>
        <mxCell id="QQmnpwuGZigfUQ-nr-9u-11" value="" style="endArrow=classic;html=1;rounded=0;entryX=1;entryY=0.5;entryDx=0;entryDy=0;exitX=0.5;exitY=0;exitDx=0;exitDy=0;" edge="1" parent="1" source="QQmnpwuGZigfUQ-nr-9u-4" target="QQmnpwuGZigfUQ-nr-9u-1">
          <mxGeometry width="50" height="50" relative="1" as="geometry">
            <mxPoint x="420" y="360" as="sourcePoint" />
            <mxPoint x="420" y="300" as="targetPoint" />
            <Array as="points">
              <mxPoint x="490" y="300" />
            </Array>
          </mxGeometry>
        </mxCell>
        <mxCell id="QQmnpwuGZigfUQ-nr-9u-12" value="" style="endArrow=classic;html=1;rounded=0;exitX=0.5;exitY=1;exitDx=0;exitDy=0;" edge="1" parent="1" source="QQmnpwuGZigfUQ-nr-9u-1" target="QQmnpwuGZigfUQ-nr-9u-3">
          <mxGeometry width="50" height="50" relative="1" as="geometry">
            <mxPoint x="390" y="460" as="sourcePoint" />
            <mxPoint x="440" y="410" as="targetPoint" />
          </mxGeometry>
        </mxCell>
        <mxCell id="QQmnpwuGZigfUQ-nr-9u-13" value="quene streaming" style="text;strokeColor=none;align=center;fillColor=none;html=1;verticalAlign=middle;whiteSpace=wrap;rounded=0;" vertex="1" parent="1">
          <mxGeometry x="102" y="324" width="120" height="30" as="geometry" />
        </mxCell>
        <mxCell id="QQmnpwuGZigfUQ-nr-9u-14" value="start recording" style="text;strokeColor=none;align=center;fillColor=none;html=1;verticalAlign=middle;whiteSpace=wrap;rounded=0;" vertex="1" parent="1">
          <mxGeometry x="280" y="380" width="120" height="30" as="geometry" />
        </mxCell>
        <mxCell id="QQmnpwuGZigfUQ-nr-9u-15" value="signal" style="text;strokeColor=none;align=center;fillColor=none;html=1;verticalAlign=middle;whiteSpace=wrap;rounded=0;" vertex="1" parent="1">
          <mxGeometry x="340" y="270" width="60" height="30" as="geometry" />
        </mxCell>
        <mxCell id="QQmnpwuGZigfUQ-nr-9u-17" value="stop/start streaming" style="text;strokeColor=none;align=center;fillColor=none;html=1;verticalAlign=middle;whiteSpace=wrap;rounded=0;" vertex="1" parent="1">
          <mxGeometry x="310" y="300" width="120" height="30" as="geometry" />
        </mxCell>
        <mxCell id="QQmnpwuGZigfUQ-nr-9u-19" value="" style="endArrow=classic;html=1;rounded=0;entryX=0;entryY=0.5;entryDx=0;entryDy=0;" edge="1" parent="1" target="QQmnpwuGZigfUQ-nr-9u-4">
          <mxGeometry width="50" height="50" relative="1" as="geometry">
            <mxPoint x="280" y="380" as="sourcePoint" />
            <mxPoint x="330" y="330" as="targetPoint" />
          </mxGeometry>
        </mxCell>
        <mxCell id="QQmnpwuGZigfUQ-nr-9u-22" value="task0: M5 Display" style="rounded=0;whiteSpace=wrap;html=1;" vertex="1" parent="1">
          <mxGeometry x="160" y="200" width="120" height="40" as="geometry" />
        </mxCell>
        <mxCell id="QQmnpwuGZigfUQ-nr-9u-27" style="edgeStyle=orthogonalEdgeStyle;rounded=0;orthogonalLoop=1;jettySize=auto;html=1;" edge="1" parent="1" source="QQmnpwuGZigfUQ-nr-9u-23">
          <mxGeometry relative="1" as="geometry">
            <mxPoint x="180" y="180" as="targetPoint" />
          </mxGeometry>
        </mxCell>
        <mxCell id="QQmnpwuGZigfUQ-nr-9u-23" value="Setup" style="rounded=0;whiteSpace=wrap;html=1;" vertex="1" parent="1">
          <mxGeometry x="120" y="80" width="120" height="40" as="geometry" />
        </mxCell>
        <mxCell id="QQmnpwuGZigfUQ-nr-9u-24" value="" style="endArrow=classic;html=1;rounded=0;exitX=0;exitY=0.5;exitDx=0;exitDy=0;entryX=1;entryY=0.5;entryDx=0;entryDy=0;" edge="1" parent="1" source="QQmnpwuGZigfUQ-nr-9u-2" target="QQmnpwuGZigfUQ-nr-9u-23">
          <mxGeometry width="50" height="50" relative="1" as="geometry">
            <mxPoint x="370" y="240" as="sourcePoint" />
            <mxPoint x="420" y="190" as="targetPoint" />
          </mxGeometry>
        </mxCell>
        <mxCell id="QQmnpwuGZigfUQ-nr-9u-28" value="" style="endArrow=classic;html=1;rounded=0;exitX=0;exitY=0.5;exitDx=0;exitDy=0;entryX=0;entryY=0.5;entryDx=0;entryDy=0;" edge="1" parent="1" source="QQmnpwuGZigfUQ-nr-9u-3" target="QQmnpwuGZigfUQ-nr-9u-22">
          <mxGeometry width="50" height="50" relative="1" as="geometry">
            <mxPoint x="360" y="300" as="sourcePoint" />
            <mxPoint x="410" y="250" as="targetPoint" />
            <Array as="points">
              <mxPoint x="100" y="380" />
              <mxPoint x="100" y="220" />
            </Array>
          </mxGeometry>
        </mxCell>
        <mxCell id="QQmnpwuGZigfUQ-nr-9u-29" value="signal" style="text;strokeColor=none;align=center;fillColor=none;html=1;verticalAlign=middle;whiteSpace=wrap;rounded=0;" vertex="1" parent="1">
          <mxGeometry x="100" y="190" width="60" height="30" as="geometry" />
        </mxCell>
        <mxCell id="QQmnpwuGZigfUQ-nr-9u-30" value="" style="endArrow=classic;html=1;rounded=0;entryX=1;entryY=0.5;entryDx=0;entryDy=0;" edge="1" parent="1" target="QQmnpwuGZigfUQ-nr-9u-22">
          <mxGeometry width="50" height="50" relative="1" as="geometry">
            <mxPoint x="570" y="380" as="sourcePoint" />
            <mxPoint x="620" y="330" as="targetPoint" />
            <Array as="points">
              <mxPoint x="620" y="380" />
              <mxPoint x="620" y="220" />
            </Array>
          </mxGeometry>
        </mxCell>
        <mxCell id="QQmnpwuGZigfUQ-nr-9u-31" value="signal" style="text;strokeColor=none;align=center;fillColor=none;html=1;verticalAlign=middle;whiteSpace=wrap;rounded=0;" vertex="1" parent="1">
          <mxGeometry x="450" y="190" width="60" height="30" as="geometry" />
        </mxCell>
        <mxCell id="QQmnpwuGZigfUQ-nr-9u-32" value="stop/start lips moving" style="text;strokeColor=none;align=center;fillColor=none;html=1;verticalAlign=middle;whiteSpace=wrap;rounded=0;" vertex="1" parent="1">
          <mxGeometry x="417.5" y="220" width="125" height="30" as="geometry" />
        </mxCell>
        <mxCell id="QQmnpwuGZigfUQ-nr-9u-33" value="emotion" style="text;strokeColor=none;align=center;fillColor=none;html=1;verticalAlign=middle;whiteSpace=wrap;rounded=0;" vertex="1" parent="1">
          <mxGeometry x="95" y="220" width="70" height="30" as="geometry" />
        </mxCell>
        <mxCell id="QQmnpwuGZigfUQ-nr-9u-34" value="Loop" style="text;strokeColor=none;align=center;fillColor=none;html=1;verticalAlign=middle;whiteSpace=wrap;rounded=0;" vertex="1" parent="1">
          <mxGeometry x="640" y="150" width="40" height="30" as="geometry" />
        </mxCell>
      </root>
    </mxGraphModel>
  </diagram>
</mxfile>
